/* XPM */
static char *_f5bc4b1fbc74e7fb7408e8dbe42af01CEVOA9Y2DiVsRx4l[] = {
/* columns rows colors chars-per-pixel */
"68 46 2 1 ",
"  c #4240FD",
". c #423FFE",
/* pixels */
"  ................                ..................................",
"                                                                    ",
"                                                                    ",
"                                                                    ",
"                                                                    ",
"                                                                    ",
"                                                                    ",
"                                                                    ",
"                                                                    ",
"                                                                    ",
"                                                                    ",
"                                                                    ",
"                                                                    ",
"                                                                    ",
"                                                                    ",
"                                                                    ",
"                                                                    ",
"  ................                ................                ..",
"  ................                ................                ..",
"  ................                ................                ..",
"  ................                ................                ..",
"  ................                ................                ..",
"  ................                ................                ..",
"  ................                ................                ..",
"  ................                ................                ..",
"  ................                ................                ..",
"  ................                ................                ..",
"  ................                ................                ..",
"  ................                ................                ..",
"  ................                ................                ..",
"  ................                ................                ..",
"  ................                ................                ..",
"  ................                ................                ..",
"                                                                    ",
"                                                                    ",
"                                                                    ",
"                                                                    ",
"                                                                    ",
"                                                                    ",
"                                                                    ",
"                                                                    ",
"                                                                    ",
"                                                                    ",
"                                                                    ",
"                                                                    ",
"                                                                    "
};
