/* XPM */
static char *_0ec5ca82c2b4ef1ae2bd093d28f66a9Eb6UzHq9BjJmLFjU[] = {
/* columns rows colors chars-per-pixel */
"16 16 10 1 ",
"  c 4240FD",
". c #181818",
"X c #784828",
"o c #A00000",
"O c #C80018",
"+ c #F82038",
"@ c #A85000",
"# c #E06058",
"$ c #E08030",
"% c #F8A870",
/* pixels */
"     .....      ",
"    .ooO++...   ",
"   .ooOOOOOOO.  ",
"   ...##.#...   ",
"  .%%..#.%%%%.  ",
"  .##..%%.###.  ",
"   ..##%.....   ",
"    ..#####.....",
" ...........%%%.",
".@@..@@$$$$.%%% ",
".@$..X@@@@@.%%. ",
".$#.o.XXXXX...  ",
".#.oOOOo...     ",
"..@.oo...       ",
" .$...          ",
" ..             "
};
