/* XPM */
static char *result[] = {
/* columns rows colors chars-per-pixel */
"14 16 11 1 ",
"  c #181818",
". c #784828",
"X c #A00000",
"o c #C80018",
"O c #F82038",
"+ c #A85000",
"@ c #E06058",
"# c #E08030",
"$ c #F0C830",
"% c #F8A870",
"& c 423FFE",
/* pixels */
"&&&&&     &&&&",
"&&&& XXoOO   &",
"&&& XXooooooo ",
"&&&   @@ @   &",
"&& %%  @ %%%% ",
"&& @@  %% @@@ ",
"&&&  @@%     &",
"&     @@@@@ &&",
" %%###Xo   &&&",
" %%+++.X # &&&",
"& %... X + &&&",
"      XoX &&&&",
" ++ Xoooo &&&&",
" ## XXXX &&&&&",
" $ +    &&&&&&",
"  & &&&&&&&&&&"
};
