/* XPM */
static char *result[] = {
/* columns rows colors chars-per-pixel */
"14 15 13 1 ",
"  c #181818",
". c #784828",
"X c #001870",
"o c #A00000",
"O c #C80018",
"+ c #F82038",
"@ c #A85000",
"# c #E06058",
"$ c #E08030",
"% c #F0C830",
"& c #F8A870",
"* c #F8F8F8",
"= c 423FFE",
/* pixels */
"=====     ====",
"==== ooO++   =",
"=== ooOOOOOOO ",
"===   ## #   =",
"== &&  # &&&& ",
"== ##  && ### ",
"===  ##&     =",
"====  ##### ==",
"====       ===",
"=   .@$  $ ===",
" @@ .&&X @ ===",
" @$ o&&*o ====",
" $# ooooO ====",
" %       =====",
"  ============"
};
